<svg width="9" height="13" viewBox="0 0 9 13" fill="none" xmlns="http://www.w3.org/2000/svg">
<path d="M4.8535 0.20033C4.75974 0.0720586 4.63258 0 4.5 0C4.36742 0 4.24026 0.0720586 4.1465 0.20033L1.5215 3.79248C1.43042 3.92152 1.38002 4.09436 1.38116 4.27376C1.3823 4.45316 1.43489 4.62477 1.52759 4.75163C1.62029 4.87848 1.7457 4.95044 1.8768 4.952C2.0079 4.95356 2.1342 4.8846 2.2285 4.75996L4 2.33577V8.89469C4 9.07616 4.05268 9.25019 4.14645 9.37851C4.24021 9.50682 4.36739 9.57891 4.5 9.57891C4.63261 9.57891 4.75979 9.50682 4.85355 9.37851C4.94732 9.25019 5 9.07616 5 8.89469V2.33577L6.7715 4.75996C6.81762 4.82531 6.8728 4.87744 6.9338 4.91329C6.9948 4.94915 7.06041 4.96803 7.1268 4.96882C7.19319 4.96961 7.25903 4.9523 7.32048 4.91789C7.38192 4.88349 7.43775 4.83268 7.4847 4.76844C7.53164 4.7042 7.56877 4.6278 7.59391 4.54372C7.61905 4.45963 7.6317 4.36953 7.63113 4.27868C7.63055 4.18783 7.61676 4.09805 7.59055 4.01457C7.56435 3.93109 7.52626 3.85559 7.4785 3.79248L4.8535 0.20033ZM0.5 6.15782C0.632608 6.15782 0.759785 6.22991 0.853553 6.35822C0.947321 6.48654 1 6.66057 1 6.84204V10.6052C1 10.8774 1.07902 11.1385 1.21967 11.331C1.36032 11.5234 1.55109 11.6316 1.75 11.6316H7.25C7.44891 11.6316 7.63968 11.5234 7.78033 11.331C7.92098 11.1385 8 10.8774 8 10.6052V6.84204C8 6.66057 8.05268 6.48654 8.14645 6.35822C8.24021 6.22991 8.36739 6.15782 8.5 6.15782C8.63261 6.15782 8.75979 6.22991 8.85355 6.35822C8.94732 6.48654 9 6.66057 9 6.84204V10.6052C9 11.2404 8.81563 11.8495 8.48744 12.2986C8.15925 12.7477 7.71413 13 7.25 13H1.75C1.28587 13 0.840752 12.7477 0.512563 12.2986C0.184375 11.8495 0 11.2404 0 10.6052V6.84204C0 6.66057 0.0526784 6.48654 0.146447 6.35822C0.240215 6.22991 0.367392 6.15782 0.5 6.15782Z" fill="black"/>
</svg>
